inDegrees=yes
name=ik_S57_A12_T01
DataType=double
version=3
OpenSimVersion=4.3-2021-08-27-4bc7ad9
endheader
time	pelvis_tilt	pelvis_list	pelvis_rotation	pelvis_tx	pelvis_ty	pelvis_tz	hip_flexion_r	hip_adduction_r	hip_rotation_r	knee_angle_r	knee_angle_r_beta	ankle_angle_r	subtalar_angle_r	mtp_angle_r	hip_flexion_l	hip_adduction_l	hip_rotation_l	knee_angle_l	knee_angle_l_beta	ankle_angle_l	subtalar_angle_l	mtp_angle_l	lumbar_extension	lumbar_bending	lumbar_rotation	arm_flex_r	arm_add_r	arm_rot_r	elbow_flex_r	pro_sup_r	wrist_flex_r	wrist_dev_r	arm_flex_l	arm_add_l	arm_rot_l	elbow_flex_l	pro_sup_l	wrist_flex_l	wrist_dev_l
0	0	0	0	0	0.9399999999999999	0	0	0	0	0	0	0	0	0	0	0	0	0	0	0	0	0	0	0	0	0	0	0	0	89.99999999963507	0	0	0	0	0	0	89.99999999869995	0	0
0.02	-0.3852543564803702	0.1333411911778459	17.77182251368126	0	0.9399999999999999	0	1.831387683631676	-0.8522077537216327	-0.6160924779428916	2.873245857381434	0.05014760043059344	0	0	0	1.831387683631676	-0.8522077537216327	-0.6160924779428916	2.873245857381434	0.05014760043059344	0	0	0	-0.2878947904149843	0.1472784206818812	8.481686685314715	2.198400454313512	-1.13584341320311	-0.2579222556207735	0.118372182213392	99.3279243013838	0	0	-1.512415457612255	-0.8220689626617351	14.56171510351101	8.814387440942312	85.68910256924052	0	0
0.04	-0.3842181217532982	0.1268662488314159	17.8314783112547	0	0.9399999999999999	0	2.154583596186696	-0.9981771154177304	-0.7342070774477505	3.130457862005173	0.05463679678693256	0	0	0	2.154583596186696	-0.9981771154177304	-0.7342070774477505	3.130457862005173	0.05463679678693256	0	0	0	-0.2898603503970497	0.1424903893702486	8.440912783014397	2.189199591742431	-1.115938775238932	-0.2629875671493243	0.1448788664521259	99.33423096709888	0	0	-1.456511667341884	-0.8270247064166031	14.57662217654007	8.773096021826314	85.65071029834779	0	0
0.06	-0.3673440389130584	0.1261208031879664	17.91916910359356	0	0.9399999999999999	0	2.565138702537659	-1.176362890732625	-0.884619834575521	3.42058086274166	0.0597003983855502	0	0	0	2.565138702537659	-1.176362890732625	-0.884619834575521	3.42058086274166	0.0597003983855502	0	0	0	-0.2745600686760193	0.1371592812059302	8.410716440851122	2.174953505609296	-1.123068727265984	-0.3045453921036029	0.06855024484303024	99.29487658113086	0	0	-1.498753421073706	-0.8537796502659797	14.62031062609133	8.860432947892097	85.66894767641256	0	0
0.08	-0.3463044644769169	0.1328201362687921	18.00249849248545	0	0.9399999999999999	0	2.973382868339843	-1.353970033173514	-1.032375641299044	3.734109400945527	0.0651725036761725	0	0	0	2.973382868339843	-1.353970033173514	-1.032375641299044	3.734109400945527	0.0651725036761725	0	0	0	-0.253196177458904	0.1379217219536055	8.370244045453584	2.122220255760903	-1.102774648652398	-0.3506756901828194	0.08501957517484481	99.31381144532411	0	0	-1.52189772651526	-0.847558927476789	14.64260384983911	8.824575953809667	85.66629272170266	0	0
0.1	-0.3472960948937936	0.1322067822782487	18.05310719853207	0	0.9399999999999999	0	3.347907051063882	-1.515307619130594	-1.166960821289257	4.024364057277539	0.07023840309841071	0	0	0	3.347907051063882	-1.515307619130594	-1.166960821289257	4.024364057277539	0.07023840309841071	0	0	0	-0.2549892685657216	0.1388114424282811	8.317921809517369	2.151524793186021	-1.100316164358455	-0.3000686547237235	0.05302108130219357	99.30127929685638	0	0	-1.473069685838825	-0.8424824225496963	14.59962337117697	8.804437052044221	85.67659336584751	0	0
0.12	-0.3606657528555773	0.1444328641570512	18.05860520567973	0	0.9399999999999999	0	4.796442777770969	-2.148176617290407	-1.676998388115089	5.375635982785764	0.0938225472882928	0	0	0	4.796442777770969	-2.148176617290407	-1.676998388115089	5.375635982785764	0.0938225472882928	0	0	0	-0.2547496042620918	0.1421247214102759	8.274479770532686	2.175648332933505	-1.137530914945767	-0.2516981596783027	0.09660652018445499	99.30393455548329	0	0	-1.454679691032061	-0.8455774768446862	14.56957598256554	8.79636146821897	85.63049496880603	0	0
0.14	-0.3620941748737437	0.1551861245165472	18.10448227204311	0	0.9399999999999999	0	6.170107121634684	-2.732913064944437	-2.150811210770754	6.711900526310449	0.1171447632504576	0	0	0	6.170107121634684	-2.732913064944437	-2.150811210770754	6.711900526310449	0.1171447632504576	0	0	0	-0.2518194689954198	0.1514593086612892	8.209844122440492	2.18556341106442	-1.149606369114939	-0.2125981769508504	0.0543568837965666	99.28393002790443	0	0	-1.457794464659906	-0.8331513075234819	14.56025562412022	8.798575237896632	85.63398034579635	0	0
0.16	-0.3513762423186119	0.1648472353046627	18.15757669311903	0	0.9399999999999999	0	6.460452687303888	-2.84828312919333	-2.249130916044103	6.973467675793374	0.1217099712239909	0	0	0	6.460452687303888	-2.84828312919333	-2.249130916044103	6.973467675793374	0.1217099712239909	0	0	0	-0.2394881216716183	0.1584591064085204	8.176187902591691	2.181771463799088	-1.156935972878594	-0.2083131046132307	0.03690189097906423	99.24558357024006	0	0	-1.469341348991044	-0.8351524451043687	14.55907166249018	8.886713067970097	85.59859682972683	0	0
0.18	-0.3238901809742619	0.1719921293844732	18.24498567985946	0	0.9399999999999999	0	6.811283652134094	-2.98628150974076	-2.367196935005782	7.292693112076456	0.127281506143246	0	0	0	6.811283652134094	-2.98628150974076	-2.367196935005782	7.292693112076456	0.127281506143246	0	0	0	-0.2118325552134977	0.1573098147592324	8.15391596955789	2.137536714451254	-1.141887362086356	-0.2343815948687991	0.04740161991761718	99.25033229670235	0	0	-1.473878857224824	-0.8437597324921435	14.59882134523386	8.785449466638847	85.60017258198756	0	0
0.2	-0.3076528652492081	0.1814204964187154	18.28876090264649	0	0.9399999999999999	0	6.816163605442183	-2.988671389800721	-2.368856680740752	7.299219587614984	0.1273954146299442	0	0	0	6.816163605442183	-2.988671389800721	-2.368856680740752	7.299219587614984	0.1273954146299442	0	0	0	-0.193515143769652	0.1611366513902614	8.171484457149395	2.107656288369586	-1.148328849959215	-0.2507229264764009	0.04332351608864098	99.25022240237928	0	0	-1.439591366528295	-0.8645442135724413	14.60063644841741	8.770420790177411	85.61337041904132	0	0
0.22	-0.2842479387298613	0.1862895116472804	18.36343409753831	0	0.9399999999999999	0	7.156267707716567	-3.121037690144748	-2.482584607312181	7.611493422474624	0.1328456212160739	0	0	0	7.156267707716567	-3.121037690144748	-2.482584607312181	7.611493422474624	0.1328456212160739	0	0	0	-0.170338112250571	0.158970223966698	8.145440229554634	2.084105164064815	-1.120964762156078	-0.2334879293681515	0.0219665113291461	99.21677495219187	0	0	-1.475475408153214	-0.8688858939755532	14.64857305592222	8.755553928377573	85.60711087310675	0	0
0.24	-0.2764811484762313	0.2126421067460663	18.40317395212238	0	0.9399999999999999	0	7.464861759531821	-3.242162686866262	-2.585432142376483	7.904254223571683	0.1379552611159938	0	0	0	7.464861759531821	-3.242162686866262	-2.585432142376483	7.904254223571683	0.1379552611159938	0	0	0	-0.1553271911326791	0.1824255874634065	8.10225256682506	2.068624095598466	-1.146350524283219	-0.1875788890471232	0.04483768894585866	99.21331271575599	0	0	-1.477666064312148	-0.8581300744793111	14.60306677290993	8.788394408627989	85.57774732564998	0	0
0.26	-0.2706344635709794	0.2390355920754844	18.39211655661876	0	0.9399999999999999	0	7.469693890513807	-3.244492664637703	-2.587070091649143	7.910643003028806	0.1380667663527044	0	0	0	7.469693890513807	-3.244492664637703	-2.587070091649143	7.910643003028806	0.1380667663527044	0	0	0	-0.1414222675409261	0.2056387326239663	8.094284217973518	2.069407762609552	-1.179366750324204	-0.1789332036452163	0.03519299188525549	99.22191922172757	0	0	-1.445464962117575	-0.8694303370574178	14.5598378549365	8.786204101012354	85.56679325216493	0	0
0.28	-0.2549663291408691	0.2725952562527564	18.374837065344	0	0.9399999999999999	0	7.470680363580148	-3.244954854604811	-2.587400768708105	7.911957173132347	0.1380897029479425	-5.487264702866641e-35	0	0	7.470680363580148	-3.244954854604811	-2.587400768708105	7.911957173132347	0.1380897029479425	-5.487264702866641e-35	0	0	-0.1159549561666601	0.2325512686945839	8.090450608241559	2.068323806037641	-1.176409315238603	-0.1953328049226946	0.03189733859161149	99.22396442626955	0	0	-1.435716494704625	-0.8704757944118319	14.54092174519159	8.787200616741117	85.57158385686843	0	0
0.3	-0.1539053572349437	0.3452780485958136	18.42482128985766	0	0.9399999999999999	0	7.480502259667263	-3.24970496206226	-2.590734245673517	7.924926606645872	0.138316062264872	-4.648915638901522e-67	0	0	7.480502259667263	-3.24970496206226	-2.590734245673517	7.924926606645872	0.138316062264872	-4.648915638901522e-67	0	0	0.002436523481329332	0.2699284089947515	8.153280817114483	1.894611938423468	-1.150766632600672	-0.4455114062425933	-0.0580948058366784	99.29696933367516	0	0	-1.589376158554212	-0.9018846891419322	14.62819152647211	8.770326137896559	85.74301173813885	0	0
0.32	-0.09264991665478998	0.3539577149114449	18.55141761128639	0	0.9399999999999999	0	7.490593960757946	-3.254562405343245	-2.594153031238068	7.938263432000568	0.1385488337790749	0	0	0	7.490593960757946	-3.254562405343245	-2.594153031238068	7.938263432000568	0.1385488337790749	0	0	0	0.06272060158514442	0.2591847777468158	8.227752294509994	1.780636811281076	-1.115503949757488	-0.6531310345411349	-0.04590456152558615	99.30366746481506	0	0	-1.588669621976402	-1.053465345519426	14.87594033415789	8.786997949189637	85.86219650398799	0	0
0.34	-0.04616351896113401	0.3489848053055327	18.62737186173479	0	0.9399999999999999	0	7.50312472174737	-3.260620480585418	-2.59840581213847	7.954794308190452	0.1388373519968279	0	0	0	7.50312472174737	-3.260620480585418	-2.59840581213847	7.954794308190452	0.1388373519968279	0	0	0	0.1044676930605078	0.2401977856993372	8.329827603545537	1.739584411426044	-1.034807760660142	-0.8673835173451694	-0.05648246433606553	99.3138944930401	0	0	-1.514677128308463	-1.309812828563153	15.23365586717796	8.95268708328898	85.75299665716379	0	0
0.36	-0.01462229006281909	0.3245762433256806	18.67302771222623	0	0.9399999999999999	0	7.516949445395762	-3.267297049083366	-2.603096319576073	7.973024940885079	0.1391555365620709	0	0	0	7.516949445395762	-3.267297049083366	-2.603096319576073	7.973024940885079	0.1391555365620709	0	0	0	0.125676441811695	0.2077182166991774	8.45787428314684	1.74841717820899	-0.9288140208795673	-1.039460139049674	-0.07979764524250021	99.28819909594476	0	0	-1.418975524726154	-1.664314554291784	15.76752414771751	9.18152535105642	85.30583113058532	0	0
0.3800000000000001	-0.01808308188372812	0.3117716936242332	18.60541827632548	0	0.9399999999999999	0	7.53698009217405	-3.277003840128783	-2.609902498040496	7.999390102444997	0.1396156954391117	0	0	0	7.53698009217405	-3.277003840128783	-2.609902498040496	7.999390102444997	0.1396156954391117	0	0	0	0.117363571317313	0.1973116388585808	8.566468905458573	1.766494649645221	-0.9115057358305172	-1.076304289069762	-0.06216599325656273	99.29499544404182	0	0	-1.219880102229169	-2.133055813471393	16.39060674728992	9.772987855164187	84.27820049880026	0	0
0.4000000000000001	-0.01642126826800687	0.3123364266581096	18.50577540326218	0	0.9399999999999999	0	7.562718718612462	-3.289498907404132	-2.618656036261419	8.033209154802138	0.1402059492526482	0	0	0	7.562718718612462	-3.289498907404132	-2.618656036261419	8.033209154802138	0.1402059492526482	0	0	0	0.1182225894376112	0.198161185337898	8.667707417897875	1.887672356236912	-0.8491244540451778	-1.104189705975862	-0.07903122188396743	99.32475765493884	0	0	-1.041881709858387	-2.539594432664787	17.16907457029691	10.40506141126983	82.98370374731508	0	0
